<mxfile host="65bd71144e">
    <diagram id="kFq7Q5psXEPhhri-myj2" name="Page-1">
        <mxGraphModel dx="432" dy="431" grid="0" gridSize="10" guides="1" tooltips="1" connect="1" arrows="1" fold="1" page="0" pageScale="1" pageWidth="850" pageHeight="1100" background="none" math="0" shadow="0">
            <root>
                <mxCell id="0"/>
                <mxCell id="1" parent="0"/>
                <mxCell id="2" value="q3" style="ellipse;shape=doubleEllipse;whiteSpace=wrap;html=1;aspect=fixed;fontSize=27;fillColor=none;labelBackgroundColor=#F9FAFB;" vertex="1" parent="1">
                    <mxGeometry x="71" y="273" width="80" height="80" as="geometry"/>
                </mxCell>
                <mxCell id="4" value="[0-9]" style="edgeStyle=orthogonalEdgeStyle;html=1;entryX=0;entryY=0.5;entryDx=0;entryDy=0;entryPerimeter=0;fontSize=14;exitX=0.959;exitY=0.236;exitDx=0;exitDy=0;exitPerimeter=0;curved=1;fillColor=none;labelBackgroundColor=#F9FAFB;" edge="1" parent="1" source="13" target="5">
                    <mxGeometry relative="1" as="geometry">
                        <mxPoint x="340" y="270" as="targetPoint"/>
                        <mxPoint x="233" y="196" as="sourcePoint"/>
                    </mxGeometry>
                </mxCell>
                <mxCell id="7" value="(\/\+\-\*)" style="edgeStyle=orthogonalEdgeStyle;html=1;exitX=0;exitY=1;exitDx=0;exitDy=0;entryX=1;entryY=0.5;entryDx=0;entryDy=0;fontSize=14;curved=1;fillColor=none;labelBackgroundColor=#F9FAFB;" edge="1" parent="1" source="5" target="6">
                    <mxGeometry relative="1" as="geometry"/>
                </mxCell>
                <mxCell id="5" value="q1" style="ellipse;whiteSpace=wrap;html=1;strokeWidth=1;perimeterSpacing=1;fontSize=27;fillColor=none;labelBackgroundColor=#F9FAFB;" vertex="1" parent="1">
                    <mxGeometry x="340" y="236" width="80" height="80" as="geometry"/>
                </mxCell>
                <mxCell id="8" value="[0-9]" style="edgeStyle=orthogonalEdgeStyle;html=1;fontSize=14;entryX=0;entryY=1;entryDx=0;entryDy=0;curved=1;fillColor=none;labelBackgroundColor=#F9FAFB;" edge="1" parent="1" source="6" target="2">
                    <mxGeometry x="-0.1667" y="-12" relative="1" as="geometry">
                        <mxPoint x="174" y="290" as="targetPoint"/>
                        <mxPoint as="offset"/>
                    </mxGeometry>
                </mxCell>
                <mxCell id="6" value="q2" style="ellipse;whiteSpace=wrap;html=1;strokeWidth=1;perimeterSpacing=1;fontSize=27;fillColor=none;labelBackgroundColor=#F9FAFB;" vertex="1" parent="1">
                    <mxGeometry x="190" y="363" width="80" height="80" as="geometry"/>
                </mxCell>
                <mxCell id="12" value="" style="endArrow=classic;html=1;curved=1;fontSize=14;fillColor=none;labelBackgroundColor=#F9FAFB;" edge="1" parent="1">
                    <mxGeometry width="50" height="50" relative="1" as="geometry">
                        <mxPoint x="110" y="230" as="sourcePoint"/>
                        <mxPoint x="140" y="230" as="targetPoint"/>
                    </mxGeometry>
                </mxCell>
                <mxCell id="13" value="q0" style="ellipse;whiteSpace=wrap;html=1;strokeWidth=1;perimeterSpacing=1;fontSize=27;fillColor=none;labelBackgroundColor=#F9FAFB;" vertex="1" parent="1">
                    <mxGeometry x="141" y="190" width="80" height="80" as="geometry"/>
                </mxCell>
                <mxCell id="19" value="(\/\+\-\*)" style="edgeStyle=orthogonalEdgeStyle;html=1;exitX=1;exitY=0.434;exitDx=0;exitDy=0;entryX=0.5;entryY=0;entryDx=0;entryDy=0;fontSize=14;curved=1;exitPerimeter=0;fillColor=none;labelBackgroundColor=#F9FAFB;" edge="1" parent="1" source="2" target="6">
                    <mxGeometry relative="1" as="geometry">
                        <mxPoint x="224.00862197135154" y="320.00137802864845" as="sourcePoint"/>
                        <mxPoint x="144" y="418.01" as="targetPoint"/>
                    </mxGeometry>
                </mxCell>
            </root>
        </mxGraphModel>
    </diagram>
</mxfile>